<?xml version='1.0' encoding='utf-8'?>
<svg xmlns="http://www.w3.org/2000/svg" width="450.17pt" height="460.96pt" version="1.1" viewBox="0 0 450.17 460.96"> <path d="m203.2 0c-34.36 0.12-65.651 18.04-90.541 40.44-22.72 0.72-39.16-17.639-57.41-28.459-12.92-8.48-31.329-7.6002-42.609 3.2798-15.54 13.39-16.17 38.169-5.0801 54.549 7.13 13.62 22.41 24.74 20.14 41.67-1.07 11.96 5.98 22.129 12.75 31.189-6.36 17.33-11.461 35.341-12.721 53.851-3.25 35.06 7.7201 70.929 29.08 98.799-5.84 0.44-11.71 1.1607-17.31 2.9707 7.7 2.08 18.561-3.4204 23.631 4.8296 4.55 5.78 10.04 10.721 14.75 16.361-23.82-2.79-48.931-0.0598-70.75 10.16 25.68-7.01 53.761-9.4913 79.061 0.4087 8.76 4.15 15.949 10.79 23.629 16.57 1.67 1 2.241 2.8207 2.001 4.7007-34.74-2.28-71.351 1.1397-102.6 17.47 31.63-11.03 66.5-15.92 99.48-8.2104 3.15 0.81 6.6092 1.4404 8.9692 3.8804-18.78-1.52-38.429-1.0506-56.219 5.6294 19.77-2.8 39.99-2.0091 59.52 2.1709 1.84 0.67 4.7702 0.89928 5.2002 3.2593-39.37-5.73-81.721 0.31082-116.22 20.571 37.19-15.85 79.94-20.5 119.14-9.8203 5.2 8.04 12.791 14.201 21.911 17.451-0.64 23.47 18.369 42.449 38.949 50.629 23.93 9.62 51.981 8.6801 75.25-2.4199 18.27-8.85 34.91-26.78 34.1-48.209 9-3.51 16.9-9.3613 22.08-17.591 39.67-10.84 82.81-5.5501 120.3 10.67-34.53-20.66-77.101-27.019-116.73-21.409-2.63-0.24 0.3502-2.0708 1.4502-2.2808 20.05-5.08 40.98-5.5302 61.49-3.4702-17.49-6.36-36.639-6.0498-55.009-5.2398 7.37-4.63 16.381-5.6 24.831-6.75 27.42-2.42 54.969 2.0501 81.069 10.33-30.61-15.57-66.17-18.81-100.04-16.56-1.15-5.09 5.2113-6.8697 8.0713-9.9097 27.62-23.78 67.719-20.22 100.46-10.89-23.07-11.09-49.56-13.891-74.83-11.111 4.67-5.75 10.23-10.721 14.84-16.521 5.42-8.53 16.86-2.3688 24.93-4.7388-6.06-1.69-12.32-2.5799-18.59-2.9399 14.83-19.81 24.63-43.35 28.22-67.84 4.13-28.84-1.8804-58.231-12.42-85.091 6.71-8.98 14.131-18.939 13.061-30.899-2.4-18.23 14.6-29.731 21.7-44.681 7.84-13.78 8.5493-32.389-1.2407-45.409-8.27-11.78-24.01-18.241-38.01-13.871-20.61 6.68-34.349 26.31-55.699 31.38-4.93 0.89-11.231 4.1306-15.081-0.66943-27.88-25.12-65.921-43.691-104.16-36.661-6.21 2.68 2.7808 5.5795 5.8608 4.9995 27.51 0.16 56.1 8.4411 76.21 27.851-5.42 0.58-16.81-4.29-17.25 3.98 8.84 14.11 27.069 16.109 41.389 21.609 15.66 10.06 33.121-2.7492 46.841-10.469-1.25 9.92-8.7606 17.07-15.891 23.29-4.45 3.38-4.8 10.97 0.22998 13.98 8.76 6.08 19.699 2.8801 29.339 1.3901-3.11 3.71-10.119 5.4792-11.379 9.7192 11.81 10.9 0.74944 27.37 8.1694 39.87 9.7 19.83 15.641 41.61 16.411 63.71 1.83 34.24-11.95 68.24-34.1 93.93-13 3.79-25.311 9.5188-37.521 15.299 1.28-7.4 14.599-11.679 10.529-21.259-5.16-4.11-10.449 3.4495-13.869 6.9595-6.92-13.02-14.49-27.279-27.91-34.579 9.58 12.49 17.879 26.699 19.819 42.599 0.33 5.08-0.5991 10.911-4.5791 14.461-18.34 8.88-37.15 17.21-55.23 26.54 16.61-0.51 33.8-3.6113 47.96-12.801 3.32-1.83 6.549-5.1591 10.689-4.1191 2.92 6.42-2.5997 13.46-7.8896 16.89-18.47 11.3-40.9 11.46-61.31 16.57 19.78 2.93 40.609 2.5294 59.209-5.5605 7.26-4.45 8.3908 7.1503 2.3408 9.3003-20.01 9.54-43.061 10.78-64.75 7.5703 17.72 10.46 39.2 10.15 58.77 6.1699 0.65 5.95-5.959 7.99-10.229 10.04-10.09 3.85-20.92 9.8304-31.95 5.9604-14.22-4.83-28.03-10.851-41.96-16.421 3.55-13.1 8.1893-26.72 17.509-36.93 6.93-7.64 18.651-6.8897 26.001-13.95 7.3-6.38 10.339-19.18 2.3394-26.25-2.89 5.04-4.9403 12.45-10.8 14.32-9.13-6.07-20.289-3.4397-30.129-0.96972-15.16 3.69-31.06-8.391-45.3 0.76904-5.79-1.74-8.3101-8.8799-11.08-13.9-7.15 5.73-5.1295 17.08 0.25048 23.43 6.92 9.47 20.649 8.1909 28.359 16.651 9.45 10.12 13.56 23.709 18.18 36.439-13.72 6.32-28.191 11.739-42.551 16.759-10.77 4.06-21.58-1.4991-31.5-5.3291-4.7-2.06-11.399-4.2403-11.219-10.51 19.62 3.98 40.859 3.8395 58.709-6.2505-21.06 2.83-43.39 2.471-62.93-6.769-7.81-1.96-5.9996-15.181 2.3804-9.3809 18.01 7.54 38.02 7.2396 57.05 4.8296-19.48-4.85-40.51-5.6986-58.63-15.289-6.54-3.43-12.14-10.371-10.62-18.151 4.11-1.48 7.4511 2.2805 10.831 4.0005 14.21 9.41 31.539 12.51 48.299 12.82-16.73-7.97-33.32-16.391-50.26-23.921-7.55-1.54-10.389-10.07-9.6987-16.9 1.88-16.28 10.56-30.8 20.66-43.32-13.78 7.17-21.651 21.449-28.701 34.649-3.67-3.03-8.2197-10.22-13.43-6.6299-3.95 9.29 9.1996 13.451 10.08 21.161-12.17-5.85-24.68-11.161-37.55-15.141-20.6-24.36-34.07-55.6-33.85-87.82-0.23-24.75 6.2096-49.22 17.12-71.35 6.23-11.02-3.88-25.05 4.96-35.08 6.31-6.19-6.5104-8.4002-9.4204-12.99 10.95 2.08 29.14 6.4297 33.62-7.5703-3.26-12-19.879-16.86-19.589-31.14 13.48 7.39 30.22 20.62 45.729 11.03 14.64-6.32 33.821-7.3797 43.181-21.97-0.13-8.94-14.35-2.4809-16.9-4.9409 18.57-17.02 43.99-26.129 69.13-26.499 4.86-0.74 11.21 0.59953 14.77-3.4805-5.36-4.51-13.2-3.0105-19.74-3.4805zm21.921 12.04c-1.6901-0.0227-3.3831 0.22451-5.0112 0.78076-9.47 2.27-14.091 14.83-8.1108 22.56 7.32 10.33 26.82 7.4897 29.25-5.5503 2.0166-9.6778-7.0015-17.668-16.128-17.791zm-32.963 8.8784c-0.31085 5e-3 -0.62121 0.0255-0.92871 0.063-10.85 1.47-20.01 12.41-18.36 23.47 1 4.56 6.7208 4.6099 10.301 3.3999 8.51-2.27 17.479-8.9394 17.979-18.379 0.525-5.0625-4.3285-8.6224-8.9912-8.5532zm65.061 0.0527c-8.6-0.05-9.899 11.1-5.269 16.49 4.91 7.08 15.63 14.259 23.95 9.1494 5.37-11.62-6.5912-25.689-18.681-25.639zm-46.291 29.657c-0.56234-0.0118-1.1527 0.0407-1.7695 0.1626-6.76 5.46-7.3199 18.12-0.16993 23.48 13.477 3.0881 13.374-23.404 1.9395-23.643zm27.026 0.12891c-0.55019 9e-3 -1.1256 0.0821-1.7256 0.22412-6.71 5.57-7.3095 18.839 0.71045 23.439 13.01 2.1541 12.202-23.845 1.0151-23.663zm-78.22 2.5898c-0.87872-0.0301-1.7593 0.14485-2.5562 0.57422-12.73 5.27-25.13 14.38-30.5 27.46-2.82 5.5 2.7103 13.14 8.8403 9.9302 12.65-6.47 21.389-18.54 28.809-30.3 3.0062-3.575-0.78596-7.5338-4.5938-7.6641zm128.4 0.52442c-3.85 0.97999-4.2701 5.5097-1.8501 8.1797 7.73 11.19 16.049 23.24 28.459 29.54 7.91 3.29 12.64-7.3704 8.1299-13.17-7.31-12.14-20.529-23.209-34.739-24.549zm-99.139 9.5112c-0.96141 0.0281-1.919 0.18753-2.8316 0.47753-10.39 3.28-16.98 19.83-6.6299 26.84 12.93 5.72 25.159-13.65 17.109-24.01-1.845-2.295-4.7637-3.392-7.648-3.3076zm72.344 0.14355c-1.0359-0.0181-2.0984 0.10576-3.1758 0.39404-14.96 6.35-2.8797 33.361 12.01 26.851 12.003-6.8956 3.3887-27.031-8.8345-27.245zm-153 14.156c-0.34713 3e-3 -0.71954 0.056-1.1133 0.16846-7.54 1.95-16.84 9.62-14.71 17.94 7.16 1.8 12.171-7.2405 17.111-11.5 3.1447-1.9303 2.068-6.6356-1.2876-6.6079zm232.89 0.30762c-6.15 2.94 1.7909 8.8207 4.4209 11.681 3.13 2.73 9.3104 10.18 12.65 4.5703-0.88-8.3-8.8613-15.571-17.071-16.251zm-117.09 2.7114c-5.81 4.81-6.14 15.969-0.22998 20.719 9.52-0.25 8.61-19.119 0.22998-20.719zm-64.062 12.618c-1.0129-0.0129-2.0246 0.1466-2.9678 0.50097-9.6 3.74-18.801 12.549-18.901 23.459-0.31 3.84 3.471 7.2713 7.251 5.8213 10.11-3.06 20.11-10.811 22.38-21.561 1.04-4.8587-3.3728-8.165-7.7622-8.2207zm129.85 0.35888c-0.91321-0.0116-1.8416 0.0632-2.7847 0.23291-5.83 1.79-5.0397 9.4592-2.4097 13.639 4.61 7.83 12.629 14.741 21.949 15.541 6.77-0.65 6.0406-9.521 3.6606-14.001-4.2412-7.1775-11.588-15.299-20.416-15.412zm-85.093 2.8052c-0.86376-7e-3 -1.7486 0.16104-2.6221 0.5376-8.71 2.99-15.321 15.98-8.0405 23.3 8.59 2.39 15.311-6.6804 17.571-13.92 1.7972-4.7587-2.2439-9.8802-6.9082-9.917zm40.324 0.27539c-0.33368 2e-3 -0.66978 0.0181-1.0064 0.0513-13.15 6.08 1.7105 28.131 13 23.051 7.0816-8.4087-1.65-23.152-11.994-23.102zm-129 5.7861c-0.63719 0.013-1.2922 0.12996-1.9497 0.36621-9.48 3.12-15.559 12.669-17.979 21.929-1.68 4.87 1.8204 11.501 7.6304 9.6709 9.95-2.93 15.16-13.58 18.33-22.69 2.0475-4.3925-1.5704-9.3666-6.0308-9.2754zm215.99 0.26514c-6.31 1.63-4.6507 9.4711-2.4507 13.831 3.6 7.03 7.9298 15.58 16.09 17.88 5.83 1.98 9.9404-4.1208 8.4404-9.3208-2.46-10.21-10.54-22.49-22.08-22.39zm-247.72 1.8677c-0.37991 3e-3 -0.7801 0.0727-1.1938 0.22265-7.45 3.42-13.039 11.44-13.639 19.63-0.46 4.03 4.7091 5.6291 7.3491 3.0791 5.1-4.45 9.5505-10.379 10.98-17.099 0.875-2.5462-0.83727-5.8506-3.4966-5.833zm279.86 0.30322c-4.65 3.91-0.42037 10.83 2.1196 14.93 2.85 4.25 8.6996 12.84 14.12 7.2305 1.55-9.46-6.7293-21.38-16.239-22.16zm-139.35 8.2588c-1.1798 3e-3 -2.4482 0.18955-3.8013 0.59033-11.66 5.45-8.3999 26.72 4.5601 27.53 14.833-2.5259 13.162-28.151-0.75879-28.121zm32.279 14.681c-10.08 3.1-9.0004 20.261-1.1104 25.291 11.87-0.17 13.36-24.371 1.1104-25.291zm-65.193 0.43652c-0.87642-0.012-1.8322 0.12422-2.8682 0.4336-6.65 4.85-5.4491 15.53-1.3491 21.729 2.66 4.41 9.0296 3.0903 10.31-1.7197 3.5344-6.3166 2.3798-20.328-6.0923-20.443zm98.162 0.95362c0.77 16.25-9.01 30.3-10.27 46.16 0.09 6 7.0208 1.8395 9.6108-0.25048 14.91-9.64 16.079-36.99 0.65918-45.91zm-131.72 0.18017c-0.32023-4e-3 -0.71049 0.0903-1.188 0.30909-15.31 13.46-9.5901 46.891 12.34 48.671 1.5-14.78-8.7894-27.5-9.3794-42.1-0.75249-1.925 0.46918-6.8513-1.7725-6.8804zm-28.119 7.3447c-0.34229-7e-3 -0.69871 0.0132-1.0693 0.0644-10.05 1.94-15.13 15.811-8.5195 23.681 3.97 4.29 10.1 6.9196 15.98 5.8096 1.78-6.05-2.06-12.33-0.45996-18.57 1.1531-4.4344-0.79681-10.873-5.9312-10.985zm188.85 0.0952c-5.11 0.53999-6.0799 6.4901-5.1899 10.62 1.17 6.04-0.9292 11.92-1.1792 17.89 5.24 2.93 11.7-0.78049 16.03-4.0005 8.61-7.85 1.5694-24.12-9.6606-24.51zm-236.47 2.9707c-0.45843-0.0121-0.94482 0.0202-1.4604 0.0996-9.53 4.25-16.01 18.949-10.03 28.049 8.41 5.75 13.81-6.5794 16.27-12.899 2.6437-5.0906 2.0967-15.068-4.7798-15.249zm284.5 0.0498c-10.79 3.45-5.0809 17.889-0.44092 24.539 2.37 6.26 12.571 7.2306 14.051-0.0894 1.49-9.32-3.2499-22.77-13.61-24.45zm-154.97 7.0093c-7.73 2.57-9.6203 14.64-5.8403 20.96 10.15 3.49 18.5-19.7 5.8403-20.96zm25.78 0c-11.41 2.45-4.1497 22.19 5.5503 21.39 5.12-5.85 2.6297-19.42-5.5503-21.39zm30.1 17.911c-4.34 4.89-7.5996 14.25-2.3496 19.67 7.25-3.04 8.3696-16.34 2.3496-19.67zm-87.93 0.0396c-3.94 5.99-2.6493 16.69 4.4106 19.63 4.77-5.51 1.5094-18.13-4.4106-19.63zm154.6 3.3164c-3.5726-0.0805-7.1393 0.19069-10.572 0.76319-15.77 3.72-32.37 11.91-39.71 27.18-8.29 17.31-7.7794 37.229-5.3394 55.819 5.68-12.5 7.6895-27.97 19.25-36.86 9.16-5.8 21.52-3.5987 30.1-10.909 8.12-5.63 8-16.801 14.48-23.581 5.65-5.52 14.051-2.6393 20.631-0.7793-7.35-7.98-18.12-11.392-28.838-11.634zm-219.63 0.21533c-2.3602 6e-3 -4.7019 0.15387-7.0034 0.44825-8.05 1.46-16.53 4.5799-21.76 11.19 6.17-2.15 13.47-4.29 19.55-0.75 7.37 5.59 6.8204 16.369 13.4 22.649 7.78 9.03 20.67 7.4006 30.51 12.311 12.71 8.47 15.26 24.72 20.58 37.92 2.39-15.79 3.3308-32.341-1.6392-47.751-6.2984-22.856-30.822-36.076-53.637-36.018zm-54.914 0.44825c-9.84 4.31-13.179 17.439-12.129 27.319 1.95 8.99 14.979 8.3899 17.339-0.0601 4.31-8.13 7.7695-26.279-5.2104-27.259zm327.01 0.13037c-11.01 5.63-6.0399 21.519-0.85987 29.909 4.4 8.42 17.97 2.37 16.25-6.46-0.89-8.98-4.5597-23.119-15.39-23.449zm-163.18 3.6592c-3.8 4.42-4.2805 13.09 0.72949 16.69 5.65-2.28 5.8205-15.71-0.72949-16.69zm26.899 0.81006c-5.7 5.69-5.8592 16.42 0.0908 22 7.21-3.89 8.1092-19.49-0.0908-22zm-53.87 0.21972c-5.28 5.6-5.14 16.61 0.97999 21.59 7.4-3.66 6.65-19.42-0.97999-21.59zm131.8 6.6167c0.76343 8e-3 1.527 0.036 2.2896 0.0835-1 8.19-3.7196 17.851-12.1 21.321-8.91 3.96-21.56 5.1799-28.4-3.1201 2.67-3.42 7.2993-11.33 11.279-5.2998 9.21 6.94 19.311-3.6907 20.111-12.431 2.2425-0.4125 4.53-0.57715 6.8203-0.55371zm-209.7 0.0439c3.87 0.55 10.97-0.82047 11.03 4.7695 1.23 9.69 14.711 13.46 20.971 6.0498 3.21 1.24 6.2693 4.9402 8.0493 8.2002-14.48 12.98-41.77 1.3504-40.05-19.02zm241.76 9.9551c-0.93867-4e-3 -1.903 0.14586-2.8755 0.47461-7.84 3.53-10.54 12.711-16.91 18.031-8.47 8.99-21.26 10.189-32.31 13.919 10.52 8.08 25.579 6.7701 37.359 2.1401 9.82-3.97 20.58-9.9095 24.25-20.52 2.345-6.4575-2.9435-14.018-9.5142-14.045zm-271.6 0.14063c-1.0087-0.016-2.0821 0.10717-3.2314 0.39404-9.49 3.68-7.5207 16.64-0.7207 22.08 13.88 13.52 38.541 22.07 55.531 9.7705-10.66-3.55-22.691-5.0493-31.121-13.299-7.0416-5.5553-10.707-18.79-20.458-18.945zm305.55 20.697c-0.91217 0.0128-1.8779 0.20976-2.8858 0.62695-9.67 7.17-5.1809 21.39-6.1509 31.75-0.09 4.05 1.0002 13.021 6.9302 8.7905 7.9-7.93 9.5695-20.21 9.9595-30.93 0.405-5.0034-2.9274-10.307-7.853-10.238zm-339.73 0.11279c-1.0245 0.0456-2.0378 0.27709-2.9678 0.70459-7.24 6.81-3.5905 18.391-1.8105 26.911 1.99 5.38 3.9894 12.999 10.419 14.339 4.81-1.28 3.6407-7.9195 4.0107-11.75-0.43-8.58 1.6194-17.79-2.1606-25.84-1.2525-2.9625-4.4176-4.5021-7.4912-4.3652zm314.81 25.875c-0.9073 0.0315-1.865 0.31066-2.8213 0.89941-7.39 3.79-13.22 10.351-17.37 17.451-2.23 3.46-1.7992 10.87 3.8408 9.75 9.53-2.76 17.019-10.951 21.249-19.701 2.0312-4.03-0.96683-8.5358-4.8984-8.3994zm-290.69 0.7251c-0.68862-0.0142-1.3872 0.0224-2.0947 0.11426-5.72 8.27 4.9401 17.051 10.56 22.471 3.67 4.67 15.971 7.5398 13.941-1.9102-3.9375-8.7937-12.077-20.462-22.406-20.675zm252.91 13.4c-0.96292-0.0229-1.9906 0.14004-3.0762 0.52441-8.68 5.29-2.3499 20.56 6.6401 20.93 8.9991-3.6069 5.7443-21.232-3.564-21.454zm-213.76 0.0278c-0.98191 8e-3 -2.0801 0.18076-3.2988 0.54639-7.02 3.84-8.25 16.57-1.27 20.81 11.634 1.3828 16.155-21.447 4.5688-21.356zm256.27 12.904c-0.87861-0.011-1.7807 0.18656-2.6338 0.63281-8.76 4.94-14.48 14.82-15.68 24.68-1.02 4.33 4.0702 7.7696 7.7402 5.2896 8.47-5.11 14.72-14.52 15.87-24.35 0.6875-3.5156-2.159-6.2127-5.2969-6.252zm-301.18 0.42041c-0.19199-3e-3 -0.3857-3e-3 -0.58007 1e-3 -6.65 8.29 2.3897 19.791 8.1797 26.511 3.1 4.38 12.611 7.1794 12.831-0.60059-0.98437-10.769-8.3348-25.705-20.43-25.912zm294.33 40.812c-10.08 9.71-20.46 19.18-31.28 28.05 3.21-13.83 17.121-22.701 29.641-27.551 0.41-0.13 1.2292-0.37951 1.6392-0.49951zm-284.25 0.16992c12.48 4.75 25.45 13.91 29.44 27.18-10.82-7.77-20.54-17.28-29.44-27.18zm142.29 101.04c13.237 0.5008 25.899 8.2211 39.488 5.3599 6.65 0.35 14.56-8.3197 19.73-0.90966 3.26 8.7-3.8996 17.209-9.7896 22.969-26.49 23.16-69.17 24.101-97.23 3.1509-6.98-5.52-13.79-13.2-13.97-22.55-0.06-5.08 5.7706-8.1805 10.061-5.5606 14.85 6.96 31.071 1.1903 46-2.1797 1.9188-0.275 3.8205-0.35133 5.7114-0.27979z"/> </svg>